<?xml version="1.0" encoding="utf-8"?>
<!-- Generator: Adobe Illustrator 19.2.1, SVG Export Plug-In . SVG Version: 6.00 Build 0)  -->
<svg version="1.1" id="layer" xmlns="http://www.w3.org/2000/svg" xmlns:xlink="http://www.w3.org/1999/xlink" x="0px" y="0px"
	 viewBox="0 0 652 652" style="enable-background:new 0 0 652 652;" xml:space="preserve">
<style type="text/css">
	.st0{fill:#007088;}
	.st1{fill:#A8A8A8;}
</style>
<g id="Symbols">
	<g id="footer" transform="translate(-932.000000, -170.000000)">
		<g id="logo_blanco" transform="translate(932.000000, 170.000000)">
			<path id="Fill-1" class="st0" d="M193.5,209.6h10.9c13.5,0,23.1,4,23.1,18.5c0,14.5-9.6,18.7-23.1,18.7h-10.9V209.6z
				 M193.5,264.3h13.3c14.1,0,25.3,4,25.3,21.1c0,17.1-11.1,21.1-25.3,21.1h-13.3V264.3z M153.3,298.6c0,5-2.8,8-7.8,8l-19,0.2v17.5
				l88.2-0.2c38.6,0,53.7-10,53.7-35.4c0-23.9-17.9-28.9-34.8-34.1v-0.4c16.1-3.8,28.5-13.5,28.5-31.3c0-17.9-13.5-30.9-42.2-30.9
				h-85.8v17.5h11.3c5,0,7.8,3,7.8,8V298.6z"/>
			<path id="Fill-2" class="st0" d="M117.9,323.6h-96v16.6h20.8c5,0,7.8,1.8,7.8,5.2v83.8c0,5-2.8,8-7.8,8H21.7v17.5h96.3v-17.5
				H95.7c-5,0-7.8-3-7.8-8v-81.1c0-7.2,2.8-8,7.8-8h22.2V323.6z"/>
			<path id="Fill-3" class="st0" d="M208.4,454.7v-17.5H196c-5,0-7.8-3-7.8-8v-33.5h6.2c11.3,0,15.7,5.2,15.7,13.5v7.8h16.5v-60.1
				h-16.5v7.8c0,8.4-4.4,13.5-15.7,13.5h-6.2v-38H208c25.5,0,36.6,4.4,36.6,33.1h18.5v-50.6H126.5v17.5h16.6c5,0,7.8,3,7.8,8v81
				c0,5-2.8,8-7.8,8h-16.5v17.5H208.4z"/>
			<path id="Fill-4" class="st0" d="M135.6,191.9h-16.5l-3.6,9.4c-11.3-7.2-24.3-11.6-37.8-11.6c-27.5,0-57.1,9-57.1,41.8
				c0,57.2,86.2,34.1,86.2,62.5c0,11.4-12.5,17.1-22.9,17.1c-23.5,0-40.8-14.5-43.4-35.4H21.9v49.7h16.7l5.2-8.1
				c12.5,9.2,28.1,12.4,43.4,12.4c27.5,0,54.9-10.8,54.9-42.6c0-56.8-86.2-36.6-86.2-61.7c0-13.3,10.8-17.1,22.3-17.1
				c17.5,0,36,11.8,39,32.7h18.3V191.9z"/>
			<path id="Fill-5" class="st1" d="M339.4,449.1c-0.8,0.2-1.9,0.5-3,0.5c-3.8,0-6.7-3-6.7-10.5c0-7.9,3.2-10.9,6.7-10.9
				c1.4,0,2.2,0.3,2.9,0.6l1-5.2c-0.6-0.4-2.1-0.8-4.3-0.8c-6.2,0-12.8,4.7-12.8,16.6c0,9,3.9,15.7,12,15.7c2.2,0,3.9-0.3,4.8-0.7
				L339.4,449.1z"/>
			<path id="Fill-6" class="st1" d="M343.1,454.8h6.2v-14.3c0-0.5,0.1-1.4,0.2-1.7c0.5-1.6,1.4-2.2,2.4-2.2c1.9,0,2.3,2,2.3,4.2v14
				h6.2v-14c0-5.8-1.7-9.5-5.9-9.5c-1.1,0-2.2,0.3-3.1,0.8c-0.8,0.5-1.5,1.2-2,2h-0.1v-12h-6.2V454.8z"/>
			<path id="Fill-7" class="st1" d="M367.7,428.5c2,0,3.6-1.6,3.6-3.8c0-2.3-1.6-3.8-3.6-3.8c-1.9,0-3.6,1.5-3.6,3.8
				C364.2,427,365.7,428.5,367.7,428.5L367.7,428.5z M370.9,431.7h-6.2v23.1h6.2V431.7z"/>
			<polygon id="Fill-8" class="st1" points="375.2,454.8 381.4,454.8 381.4,422.2 375.2,422.2 			"/>
			<path id="Fill-9" class="st1" d="M390.9,441.1c0.1-2.3,0.9-5.3,2.9-5.3c1.8,0,2.6,2.3,2.6,5.3H390.9z M401.9,445.4
				c0.1-0.7,0.2-1.6,0.2-3.2c0-7-2.9-10.9-7.9-10.9c-5.2,0-9.2,4.6-9.2,12.4c0,7.2,3.5,11.3,9.8,11.3c2.3,0,4.8-0.4,6.3-1.1
				l-0.8-4.4c-1.1,0.4-2.6,0.8-4.4,0.8c-2.7,0-4.8-1.3-4.9-4.9H401.9z"/>
			<polygon id="Fill-10" class="st1" points="324.9,398.5 331.3,398.5 331.3,384.9 338.7,384.9 338.7,379.6 331.3,379.6 
				331.3,371.1 339.2,371.1 339.2,365.6 324.9,365.6 			"/>
			<path id="Fill-11" class="st1" d="M346.2,371.3c2.1,0,3.8-1.6,3.7-3.9c0-2.4-1.6-4-3.7-4c-2,0-3.7,1.5-3.7,4
				C342.5,369.7,344.1,371.3,346.2,371.3L346.2,371.3z M349.5,374.6h-6.4v23.9h6.4V374.6z"/>
			<path id="Fill-12" class="st1" d="M353.9,398.5h6.4v-14.5c0-0.9,0.2-1.7,0.3-2.2c0.5-1.4,1.4-2.1,2.4-2.1c1.9,0,2.4,1.9,2.4,3.9
				v15h6.4v-15.3c0-5.3-1.8-9-6.4-9c-2.5,0-4.6,1.3-5.8,3.2h-0.1l-0.3-2.8h-5.5c0.1,2.3,0.2,4.6,0.2,7.2V398.5z"/>
			<path id="Fill-13" class="st1" d="M386.2,391c0,0.4,0,0.8-0.1,1.1c-0.4,1.4-1.6,2.1-2.6,2.1c-1,0-2.3-0.9-2.3-3.2
				c0-3.3,3-4,5.1-4.1V391z M392.5,384.1c0-4.8-1.2-9.9-8.5-9.9c-3.3,0-6.1,1.1-7.4,1.8l1.2,4.3c1.4-0.9,3-1.4,4.9-1.4
				c2.3,0,3.4,1.4,3.4,3.3v0.5c-5.4,0-10.9,2.6-10.9,8.9c0,4.2,2.7,7.2,6.3,7.2c2.1,0,4-0.9,5.3-2.7h0.1l0.4,2.4h5.7
				c-0.3-1.6-0.4-3.6-0.4-5.5V384.1z"/>
			<path id="Fill-14" class="st1" d="M397,398.5h6.4v-14.5c0-0.9,0.2-1.7,0.3-2.2c0.5-1.4,1.3-2.1,2.4-2.1c1.9,0,2.4,1.9,2.4,3.9v15
				h6.4v-15.3c0-5.3-1.8-9-6.4-9c-2.5,0-4.6,1.3-5.8,3.2h-0.1l-0.3-2.8h-5.5c0.1,2.3,0.2,4.6,0.2,7.2V398.5z"/>
			<path id="Fill-15" class="st1" d="M432.1,393c-0.7,0.3-1.5,0.5-2.4,0.5c-3,0-4.8-2.7-4.8-7c0-4.2,1.8-7.1,4.9-7.1
				c1.1,0,1.8,0.3,2.4,0.4l0.8-5c-0.6-0.3-2-0.6-3.5-0.6c-6.6,0-11,5.1-11,12.5c0,7.8,4,12,10,12c1.8,0,3.4-0.4,4.1-0.7L432.1,393z"
				/>
			<path id="Fill-16" class="st1" d="M438.2,371.3c2.1,0,3.8-1.6,3.7-3.9c0-2.4-1.6-4-3.7-4c-2,0-3.7,1.5-3.7,4
				C434.6,369.7,436.2,371.3,438.2,371.3L438.2,371.3z M441.6,374.6h-6.4v23.9h6.4V374.6z"/>
			<path id="Fill-17" class="st1" d="M451.4,384.3c0.1-2.4,0.9-5.5,3-5.5c1.9,0,2.7,2.4,2.7,5.5H451.4z M462.7,388.8
				c0.1-0.7,0.2-1.6,0.2-3.3c0-7.2-3-11.3-8.2-11.3c-5.4,0-9.6,4.8-9.6,12.8c0,7.5,3.6,11.8,10.1,11.8c2.4,0,4.9-0.4,6.6-1.1
				l-0.8-4.6c-1.2,0.4-2.7,0.8-4.6,0.8c-2.8,0-5-1.4-5.1-5.1H462.7z"/>
			<path id="Fill-18" class="st1" d="M466.5,398.5h6.4v-12.1c0-1,0.1-1.9,0.3-2.4c0.7-2.5,2.5-3.4,3.9-3.4c0.6,0,1,0,1.4,0.1v-6.3
				c-0.4-0.1-0.7-0.1-1.4-0.1c-1.7,0-3.7,1.3-4.7,3.9h-0.2l-0.3-3.5h-5.6c0.1,2.2,0.2,4.8,0.2,7.2V398.5z"/>
			<path id="Fill-19" class="st1" d="M490.7,391c0,0.4,0,0.8-0.1,1.1c-0.4,1.4-1.6,2.1-2.6,2.1c-1,0-2.3-0.9-2.3-3.2
				c0-3.3,3-4,5.1-4.1V391z M497,384.1c0-4.8-1.2-9.9-8.5-9.9c-3.3,0-6.1,1.1-7.4,1.8l1.2,4.3c1.4-0.9,3-1.4,4.9-1.4
				c2.3,0,3.4,1.4,3.4,3.3v0.5c-5.4,0-10.9,2.6-10.9,8.9c0,4.2,2.7,7.2,6.3,7.2c2.1,0,4-0.9,5.3-2.7h0.1l0.4,2.4h5.7
				c-0.3-1.6-0.4-3.6-0.4-5.5V384.1z"/>
			<path id="Fill-20" class="st1" d="M500.1,397.4c1.1,0.8,3.5,1.4,5.4,1.4c5,0,8.5-2.6,8.5-7.5c0-2.7-1.3-5.2-4.8-7.2
				c-2.2-1.3-2.8-1.9-2.8-3c0-1.1,0.8-2,2.4-2c1.3,0,2.4,0.4,3.3,1l1.1-4.7c-1.3-0.6-2.9-1.1-4.9-1.1c-4.8,0-7.9,3.3-7.9,7.6
				c0,2.2,1,4.7,4.9,6.9c2.1,1.2,2.8,2,2.8,3.2c0,1.4-1,2.1-2.6,2.1c-1.6,0-3.4-0.7-4.3-1.3L500.1,397.4z"/>
			<path id="Fill-21" class="st1" d="M329.6,326.3c0.1-2.4,0.9-5.5,3-5.5c1.9,0,2.7,2.4,2.7,5.5H329.6z M341,330.8
				c0.1-0.7,0.2-1.6,0.2-3.3c0-7.2-3-11.3-8.2-11.3c-5.4,0-9.6,4.8-9.6,12.8c0,7.5,3.6,11.8,10.1,11.8c2.4,0,4.9-0.4,6.6-1.1
				l-0.8-4.6c-1.2,0.4-2.7,0.8-4.6,0.8c-2.8,0-5-1.4-5.1-5.1H341z"/>
			<polygon id="Fill-22" class="st1" points="353.1,340.5 359.6,340.5 359.6,307.6 353.1,307.6 			"/>
			<path id="Fill-23" class="st1" d="M364.7,340.5h6.4v-14.5c0-0.9,0.2-1.7,0.3-2.2c0.5-1.4,1.3-2.1,2.4-2.1c1.9,0,2.4,1.9,2.4,3.9
				v15h6.4v-15.3c0-5.3-1.8-9-6.4-9c-2.5,0-4.6,1.2-5.8,3.2h-0.1l-0.3-2.8h-5.5c0.1,2.3,0.2,4.6,0.2,7.2V340.5z"/>
			<path id="Fill-24" class="st1" d="M385.7,339.4c1.1,0.8,3.5,1.4,5.4,1.4c5,0,8.5-2.6,8.5-7.5c0-2.7-1.3-5.2-4.8-7.2
				c-2.2-1.3-2.8-1.9-2.8-3c0-1.1,0.8-2,2.4-2c1.3,0,2.4,0.4,3.3,1l1.1-4.7c-1.3-0.6-2.9-1.1-4.9-1.1c-4.8,0-7.9,3.3-7.9,7.6
				c0,2.2,1,4.7,4.9,6.9c2.1,1.2,2.8,2,2.8,3.2c0,1.4-1,2.1-2.6,2.1c-1.6,0-3.4-0.7-4.3-1.3L385.7,339.4z"/>
			<path id="Fill-25" class="st1" d="M404,312.4v4.2h-2.8v4.5h2.8v11.3c0,3.8,0.7,5.6,2,6.8c1.2,1.1,2.8,1.5,4.6,1.5
				c1.7,0,3-0.2,3.9-0.4l0-5c-0.6,0.1-1.1,0.1-1.7,0.1c-1.3,0-2.4-0.7-2.4-3.5v-10.9h4.7v-4.5h-4.7v-6.2L404,312.4z"/>
			<path id="Fill-26" class="st1" d="M421.2,313.3c2.1,0,3.8-1.6,3.7-3.9c0-2.4-1.6-4-3.7-4c-2,0-3.7,1.5-3.7,4
				C417.5,311.7,419.2,313.3,421.2,313.3L421.2,313.3z M424.5,316.6h-6.4v23.9h6.4V316.6z"/>
			<path id="Fill-27" class="st1" d="M430.1,312.4v4.2h-2.8v4.5h2.8v11.3c0,3.8,0.7,5.6,2,6.8c1.2,1.1,2.8,1.5,4.6,1.5
				c1.7,0,3-0.2,3.9-0.4l0-5c-0.6,0.1-1.1,0.1-1.7,0.1c-1.3,0-2.4-0.7-2.4-3.5v-10.9h4.7v-4.5h-4.7v-6.2L430.1,312.4z"/>
			<path id="Fill-28" class="st1" d="M461.7,316.6h-6.4v15.3c0,0.8-0.2,1.6-0.4,2c-0.3,0.8-1,1.6-2.1,1.6c-1.8,0-2.4-2-2.4-5.2
				v-13.8H444v14.5c0,6.4,1.8,9.8,6.4,9.8c2.5,0,4.4-1.3,5.5-2.9h0.1l0.4,2.5h5.5c-0.1-2.2-0.2-4.7-0.2-7.3V316.6z"/>
			<path id="Fill-29" class="st1" d="M479.1,335.1c-0.7,0.3-1.5,0.5-2.4,0.5c-3,0-4.8-2.7-4.8-7c0-4.2,1.8-7.1,4.9-7.1
				c1.1,0,1.9,0.3,2.4,0.4l0.8-5c-0.6-0.3-2-0.6-3.5-0.6c-6.6,0-11,5.1-11,12.5c0,7.8,4,12,10,12c1.8,0,3.4-0.4,4.1-0.7L479.1,335.1
				z"/>
			<path id="Fill-30" class="st1" d="M485.2,313.3c2.1,0,3.8-1.6,3.7-3.9c0-2.4-1.6-4-3.7-4c-2,0-3.7,1.5-3.7,4
				C481.5,311.7,483.2,313.3,485.2,313.3L485.2,313.3z M488.5,316.6h-6.4v23.9h6.4V316.6z"/>
			<path id="Fill-31" class="st1" d="M501.4,336c-2.2,0-2.9-3.4-2.9-7.5c0-3.3,0.5-7.4,2.8-7.4c2.2,0,2.7,4.1,2.7,7.4
				C504,332,503.5,336,501.4,336L501.4,336z M501.4,340.9c3.6,0,9.1-2.5,9.1-12.4c0-7.5-3.4-12.3-9-12.3c-4.8,0-9.3,3.9-9.3,12.4
				C492.2,336.4,495.6,340.9,501.4,340.9L501.4,340.9z"/>
			<path id="Fill-32" class="st1" d="M514.1,340.5h6.4v-14.5c0-0.9,0.1-1.7,0.3-2.2c0.5-1.4,1.3-2.1,2.4-2.1c1.9,0,2.4,1.9,2.4,3.9
				v15h6.4v-15.3c0-5.3-1.8-9-6.4-9c-2.5,0-4.6,1.2-5.8,3.2h-0.1l-0.3-2.8h-5.5c0.1,2.3,0.2,4.6,0.2,7.2V340.5z"/>
			<path id="Fill-33" class="st1" d="M541.9,326.3c0.1-2.4,0.9-5.5,3-5.5c1.9,0,2.7,2.4,2.7,5.5H541.9z M553.2,330.8
				c0.1-0.7,0.2-1.6,0.2-3.3c0-7.2-3-11.3-8.2-11.3c-5.4,0-9.6,4.8-9.6,12.8c0,7.5,3.6,11.8,10.1,11.8c2.4,0,4.9-0.4,6.6-1.1
				l-0.8-4.6c-1.2,0.4-2.7,0.8-4.6,0.8c-2.8,0-5-1.4-5.1-5.1H553.2z"/>
			<path id="Fill-34" class="st1" d="M555.6,339.4c1.1,0.8,3.5,1.4,5.4,1.4c5,0,8.5-2.6,8.5-7.5c0-2.7-1.3-5.2-4.8-7.2
				c-2.2-1.3-2.8-1.9-2.8-3c0-1.1,0.8-2,2.4-2c1.3,0,2.4,0.4,3.3,1l1.1-4.7c-1.3-0.6-2.9-1.1-4.9-1.1c-4.8,0-7.9,3.3-7.9,7.6
				c0,2.2,1,4.7,4.9,6.9c2.1,1.2,2.8,2,2.8,3.2c0,1.4-1,2.1-2.6,2.1c-1.6,0-3.4-0.7-4.3-1.3L555.6,339.4z"/>
			<path id="Fill-35" class="st1" d="M335.3,274.1c0,0.6-0.1,1.1-0.2,1.5c-0.5,1.6-1.4,2.1-2.2,2.1c-1.8,0-3-2.4-3-6.9
				c0-3.9,0.8-7.1,3.1-7.1c1.3,0,2,1.3,2.3,2.8c0.1,0.5,0.1,1,0.1,1.4V274.1z M335.3,248.7v11.9h-0.1c-0.6-1.4-1.9-2.4-4-2.4
				c-4,0-7.7,4.1-7.7,12.4c0,6.6,2.3,12.3,7.4,12.3c2.2,0,4.1-1.4,5-3.1h0.1l0.3,2.7h5.5c-0.1-2.2-0.2-4.8-0.2-7.1v-26.7H335.3z"/>
			<path id="Fill-36" class="st1" d="M351.5,268.3c0.1-2.4,0.9-5.5,3-5.5c1.9,0,2.7,2.4,2.7,5.5H351.5z M362.8,272.8
				c0.1-0.7,0.2-1.6,0.2-3.3c0-7.2-3-11.3-8.2-11.3c-5.4,0-9.6,4.8-9.6,12.8c0,7.5,3.6,11.8,10.1,11.8c2.4,0,4.9-0.4,6.6-1.1
				l-0.8-4.6c-1.2,0.4-2.7,0.8-4.6,0.8c-2.8,0-5-1.4-5.1-5.1H362.8z"/>
			<path id="Fill-37" class="st1" d="M381.4,267.9h1.4c2.5,0,4.8,1.7,4.8,5c0,3.3-2.1,4.9-4.8,4.9c-0.5,0-1,0-1.4-0.1V267.9z
				 M381.4,254.4c0.4-0.1,1-0.2,1.7-0.2c2.6,0,3.8,1.9,3.8,4.3c0,2.7-1.8,4.6-4.1,4.6h-1.4V254.4z M375,282.4c1.5,0.2,3.5,0.4,6,0.4
				c5.5,0,8.9-1.2,10.8-3.3c1.5-1.6,2.4-3.7,2.4-6.5c0-3.6-2-6.8-5.8-7.9v-0.2c3.3-1.4,4.8-4.3,4.8-7.2c0-2.3-0.7-4.5-2.5-6
				c-2.3-1.9-5.3-2.3-8.3-2.3c-2.8,0-5.4,0.2-7.3,0.6V282.4z"/>
			<path id="Fill-38" class="st1" d="M407.9,275c0,0.4,0,0.8-0.1,1.1c-0.4,1.4-1.6,2.1-2.6,2.1c-1,0-2.3-0.9-2.3-3.2
				c0-3.3,3-4,5.1-4.1V275z M414.2,268.1c0-4.8-1.2-9.9-8.5-9.9c-3.3,0-6.1,1.1-7.4,1.8l1.2,4.3c1.4-0.9,3-1.4,4.9-1.4
				c2.3,0,3.4,1.4,3.4,3.3v0.5c-5.4,0-10.9,2.6-10.9,8.9c0,4.2,2.7,7.3,6.3,7.3c2.1,0,4-0.9,5.3-2.7h0.1l0.4,2.4h5.7
				c-0.3-1.6-0.4-3.6-0.4-5.5V268.1z"/>
			<path id="Fill-39" class="st1" d="M418.7,282.5h6.4v-14.5c0-0.9,0.2-1.7,0.3-2.2c0.5-1.4,1.3-2.1,2.4-2.1c1.9,0,2.4,1.9,2.4,3.9
				v15h6.4v-15.3c0-5.3-1.8-9-6.4-9c-2.5,0-4.6,1.3-5.8,3.2h-0.1l-0.3-2.8h-5.5c0.1,2.3,0.2,4.6,0.2,7.2V282.5z"/>
			<path id="Fill-40" class="st1" d="M453.8,277.1c-0.7,0.3-1.5,0.5-2.4,0.5c-3,0-4.8-2.7-4.8-7c0-4.2,1.8-7.1,4.9-7.1
				c1.1,0,1.9,0.3,2.4,0.4l0.8-5c-0.6-0.3-2-0.6-3.5-0.6c-6.6,0-11,5.1-11,12.5c0,7.8,4,12,10,12c1.8,0,3.4-0.4,4.1-0.7L453.8,277.1
				z"/>
			<path id="Fill-41" class="st1" d="M465.2,278c-2.2,0-2.9-3.4-2.9-7.5c0-3.3,0.5-7.4,2.8-7.4c2.2,0,2.7,4.1,2.7,7.4
				C467.8,274,467.3,278,465.2,278L465.2,278z M465.1,282.9c3.6,0,9.1-2.5,9.1-12.4c0-7.5-3.4-12.3-9-12.3c-4.7,0-9.3,3.9-9.3,12.4
				C455.9,278.4,459.4,282.9,465.1,282.9L465.1,282.9z"/>
			<path id="Fill-42" class="st1" d="M476.5,281.4c1.1,0.8,3.5,1.4,5.4,1.4c5,0,8.5-2.6,8.5-7.5c0-2.7-1.3-5.2-4.8-7.2
				c-2.2-1.3-2.8-1.9-2.8-3c0-1.1,0.8-2,2.4-2c1.3,0,2.4,0.4,3.3,1l1.1-4.7c-1.3-0.6-2.9-1.1-4.9-1.1c-4.8,0-7.9,3.3-7.9,7.6
				c0,2.2,1,4.7,4.9,6.9c2.1,1.2,2.8,2,2.8,3.2c0,1.4-1,2.1-2.6,2.1c-1.6,0-3.4-0.7-4.3-1.3L476.5,281.4z"/>
			<path id="Fill-43" class="st1" d="M323.2,223.5c1.1,0.7,3.7,1.3,6.3,1.3c6.4,0,10.9-3.9,10.9-10c0-3.5-1.6-6.8-6-9.4
				c-3.5-2.1-4.5-3.2-4.5-5.1c0-1.7,1.3-3.4,4.1-3.4c1.8,0,3.3,0.5,4.2,1.1l1-5.5c-1-0.6-3-1.2-5.2-1.2c-6.9,0-10.4,4.4-10.4,9.7
				c0,3,1.7,6.4,6.2,9.2c2.8,1.8,4.3,3,4.3,5.3c0,2.2-1.5,3.7-4.5,3.7c-1.8,0-4.1-0.5-5.4-1.3L323.2,223.5z"/>
			<path id="Fill-44" class="st1" d="M361.6,200.6h-6.4v15.3c0,0.8-0.2,1.6-0.4,2c-0.3,0.8-1,1.6-2.1,1.6c-1.8,0-2.4-2-2.4-5.2
				v-13.8h-6.4v14.5c0,6.4,1.8,9.8,6.4,9.8c2.5,0,4.4-1.3,5.5-2.9h0.1l0.4,2.5h5.5c-0.1-2.2-0.2-4.7-0.2-7.3V200.6z"/>
			<path id="Fill-45" class="st1" d="M372.4,209.4c0-0.6,0.1-1.2,0.3-1.7c0.3-1.1,1.2-2,2.2-2c1.9,0,3,2.4,3,7
				c0,3.8-0.8,7.1-3.1,7.1c-0.7,0-1.6-0.4-2.1-1.8c-0.2-0.5-0.3-1.2-0.3-2V209.4z M366.1,233.9h6.4v-11.3h0.1c0.7,1.1,2,2.3,3.9,2.3
				c4.1,0,7.8-3.8,7.8-12.4c0-6.6-2.2-12.3-7.4-12.3c-2.2,0-4,1.2-5,3.2h-0.1l-0.3-2.8h-5.6c0.1,2.3,0.2,4.7,0.2,7.6V233.9z"/>
			<path id="Fill-46" class="st1" d="M393.2,210.4c0.1-2.4,0.9-5.5,3-5.5c1.9,0,2.7,2.4,2.7,5.5H393.2z M404.6,214.8
				c0.1-0.7,0.2-1.6,0.2-3.3c0-7.2-3-11.3-8.2-11.3c-5.4,0-9.6,4.8-9.6,12.8c0,7.5,3.6,11.8,10.1,11.8c2.4,0,4.9-0.4,6.6-1.1
				l-0.8-4.6c-1.2,0.4-2.7,0.8-4.6,0.8c-2.8,0-5-1.4-5.1-5.1H404.6z"/>
			<path id="Fill-47" class="st1" d="M408.3,224.5h6.4v-12.1c0-1,0.1-1.9,0.3-2.4c0.7-2.5,2.5-3.4,3.9-3.4c0.6,0,1,0,1.4,0.1v-6.3
				c-0.4-0.1-0.7-0.1-1.4-0.1c-1.7,0-3.7,1.3-4.7,3.9H414l-0.3-3.5h-5.6c0.1,2.2,0.2,4.8,0.2,7.2V224.5z"/>
			<path id="Fill-48" class="st1" d="M425.6,197.3c2.1,0,3.8-1.6,3.7-3.9c0-2.4-1.6-4-3.7-4c-2,0-3.7,1.5-3.7,4
				C422,195.7,423.6,197.3,425.6,197.3L425.6,197.3z M429,200.6h-6.4v23.9h6.4V200.6z"/>
			<path id="Fill-49" class="st1" d="M433.3,224.5h6.4V210c0-0.9,0.2-1.7,0.3-2.2c0.5-1.4,1.3-2.1,2.4-2.1c1.9,0,2.4,1.9,2.4,3.9v15
				h6.4v-15.3c0-5.3-1.8-9-6.4-9c-2.5,0-4.6,1.3-5.8,3.2H439l-0.3-2.8h-5.5c0.1,2.3,0.2,4.6,0.2,7.2V224.5z"/>
			<path id="Fill-50" class="st1" d="M456.7,196.4v4.2h-2.8v4.5h2.8v11.3c0,3.8,0.7,5.6,2,6.8c1.2,1.1,2.8,1.5,4.6,1.5
				c1.7,0,3-0.2,3.9-0.4l-0.1-5c-0.6,0.1-1.1,0.1-1.7,0.1c-1.3,0-2.4-0.7-2.4-3.5v-10.9h4.7v-4.5h-4.7v-6.2L456.7,196.4z"/>
			<path id="Fill-51" class="st1" d="M475.7,210.4c0.1-2.4,0.9-5.5,3-5.5c1.9,0,2.7,2.4,2.7,5.5H475.7z M487.1,214.8
				c0.1-0.7,0.2-1.6,0.2-3.3c0-7.2-3-11.3-8.2-11.3c-5.4,0-9.6,4.8-9.6,12.8c0,7.5,3.6,11.8,10.1,11.8c2.4,0,4.9-0.4,6.6-1.1
				l-0.8-4.6c-1.2,0.4-2.7,0.8-4.6,0.8c-2.8,0-5-1.4-5.1-5.1H487.1z"/>
			<path id="Fill-52" class="st1" d="M490.8,224.5h6.4V210c0-0.9,0.2-1.7,0.3-2.2c0.5-1.4,1.3-2.1,2.4-2.1c1.9,0,2.4,1.9,2.4,3.9v15
				h6.4v-15.3c0-5.3-1.8-9-6.4-9c-2.5,0-4.6,1.3-5.8,3.2h-0.1l-0.3-2.8h-5.5c0.1,2.3,0.2,4.6,0.2,7.2V224.5z"/>
			<path id="Fill-53" class="st1" d="M524.1,216.1c0,0.6-0.1,1.1-0.2,1.5c-0.5,1.6-1.4,2.1-2.2,2.1c-1.8,0-3-2.4-3-6.9
				c0-3.9,0.8-7.1,3.1-7.1c1.3,0,2.1,1.3,2.3,2.8c0.1,0.5,0.1,1,0.1,1.4V216.1z M524.1,190.7v11.9H524c-0.6-1.4-1.9-2.4-4-2.4
				c-4,0-7.7,4.1-7.7,12.4c0,6.6,2.3,12.3,7.4,12.3c2.2,0,4.1-1.4,5-3.1h0.1l0.4,2.7h5.5c-0.1-2.2-0.2-4.8-0.2-7.1v-26.7H524.1z"/>
			<path id="Fill-54" class="st1" d="M540.2,210.4c0.1-2.4,0.9-5.5,3-5.5c1.9,0,2.7,2.4,2.7,5.5H540.2z M551.6,214.8
				c0.1-0.7,0.2-1.6,0.2-3.3c0-7.2-3-11.3-8.2-11.3c-5.4,0-9.6,4.8-9.6,12.8c0,7.5,3.6,11.8,10.1,11.8c2.4,0,4.9-0.4,6.6-1.1
				l-0.8-4.6c-1.2,0.4-2.7,0.8-4.6,0.8c-2.8,0-5-1.4-5.1-5.1H551.6z"/>
			<path id="Fill-55" class="st1" d="M555.3,224.5h6.4V210c0-0.9,0.2-1.7,0.3-2.2c0.4-1.4,1.3-2.1,2.4-2.1c1.9,0,2.4,1.9,2.4,3.9v15
				h6.4v-15.3c0-5.3-1.8-9-6.4-9c-2.5,0-4.6,1.3-5.8,3.2h-0.1l-0.3-2.8h-5.5c0.1,2.3,0.2,4.6,0.2,7.2V224.5z"/>
			<path id="Fill-56" class="st1" d="M590.3,219.1c-0.7,0.3-1.5,0.5-2.4,0.5c-3,0-4.8-2.7-4.8-7c0-4.2,1.8-7.1,4.9-7.1
				c1.1,0,1.9,0.3,2.4,0.4l0.8-5c-0.6-0.3-2-0.6-3.5-0.6c-6.6,0-11,5.1-11,12.5c0,7.8,4,12,10,12c1.8,0,3.4-0.4,4.1-0.7L590.3,219.1
				z"/>
			<path id="Fill-57" class="st1" d="M596.4,197.3c2.1,0,3.8-1.6,3.7-3.9c0-2.4-1.6-4-3.7-4c-2,0-3.7,1.5-3.7,4
				C592.7,195.7,594.3,197.3,596.4,197.3L596.4,197.3z M599.7,200.6h-6.4v23.9h6.4V200.6z"/>
			<path id="Fill-58" class="st1" d="M613.9,217c0,0.4,0,0.8-0.1,1.1c-0.4,1.4-1.6,2.1-2.6,2.1c-1,0-2.3-0.9-2.3-3.2
				c0-3.3,3-4,5.1-4.1V217z M620.2,210.2c0-4.8-1.2-9.9-8.5-9.9c-3.3,0-6.1,1.1-7.4,1.8l1.2,4.3c1.4-0.9,3-1.4,4.9-1.4
				c2.3,0,3.4,1.4,3.4,3.3v0.5c-5.4,0.1-10.9,2.6-10.9,8.9c0,4.2,2.7,7.3,6.3,7.3c2.1,0,4-0.9,5.3-2.7h0.1l0.3,2.4h5.7
				c-0.3-1.6-0.4-3.6-0.4-5.5V210.2z"/>
		</g>
	</g>
</g>
</svg>
